<svg xmlns="http://www.w3.org/2000/svg" version="1.1" xmlns:xlink="http://www.w3.org/1999/xlink" xmlns:svgjs="http://svgjs.dev/svgjs" width="100%" height="100%" viewBox="0 0 1000 600"><rect width="1000" height="600" x="0" y="0" fill="#2b3252"/><g><circle r="166.66666666666666" cx="388.43036905924475" cy="410.6526546406684" fill="#fad744" transform="matrix(0.5636627436265698,0,0,0.5636627436265699,0,68.53037895787637)"/><path d="M334.9875240490855 481.6097326949783L350.06720086176085 481.6097326949783L334.5743822186012 435.721479380477L292.4929357707049 435.721479380477L276.14432333582795 481.6097326949783L292.07979394022067 481.6097326949783L292.07979394022067 485.6526206075742L259.55962985495995 485.6526206075742L259.55962985495995 481.6097326949783L269.5635641788287 481.6097326949783L323.74416423376397 335.6526260110405L341.15514137560046 335.6526260110405L394.6865185540604 481.6097326949783L404.48388196268706 481.6097326949783L404.48388196268706 485.6526206075742L334.9875240490855 485.6526206075742L334.9875240490855 481.6097326949783ZM332.86279463516644 431.0588787221547L314.3894527863705 375.3732619990268L294.4110942693818 431.0588787221547L332.86279463516644 431.0588787221547ZM437.8303297089163 340.31522666936286L466.7207477120653 406.831061377328L496.9096114681648 340.31522666936286L475.4262362829835 340.31522666936286L475.4262362829835 336.92156163324216L517.3011118156377 336.92156163324216L517.3011118156377 340.31522666936286L503.2837997099219 340.31522666936286L471.1767774551455 411.2870911204082L471.1767774551455 481.6097326949783L484.1612349846507 481.6097326949783L484.1612349846507 485.6526206075742L416.7896064849681 485.6526206075742L416.7896064849681 481.6097326949783L429.7445538837244 481.6097326949783L429.7445538837244 415.3299790330041L393.62415384710096 340.31522666936286L383.649729653981 340.31522666936286L383.649729653981 336.92156163324216L451.64107089938994 336.92156163324216L451.64107089938994 340.31522666936286L437.8303297089163 340.31522666936286Z " fill="#2b3252" transform="matrix(0.5636627436265698,0,0,0.5636627436265699,0,68.53037895787637)"/><path d="M677.1427710792503 346.13196103171873L701.8967774766168 418.85476176810437L714.4846325185484 375.1240894783787L705.375832890216 346.13196103171873L696.7309073170301 346.13196103171873L696.7309073170301 343.24329077921516L743.7930387300811 343.24329077921516L743.7930387300811 346.13196103171873L734.8318353920225 346.13196103171873L757.4562381725797 417.92701365781124L775.6738374292446 346.13196103171873L760.3449084250833 346.13196103171873L760.3449084250833 343.24329077921516L790.7075738528581 343.24329077921516L790.7075738528581 346.13196103171873L780.6921112985574 346.13196103171873L752.7542420681395 451.0307530478157L739.2386389159149 451.0307530478157L716.7618324256315 382.41956325477463L697.026099897578 451.0307530478157L683.8267745102257 451.0307530478157L645.5782501449595 346.13196103171873L638.4303726588375 346.13196103171873L638.4303726588375 343.24329077921516L687.7697039789716 343.24329077921516L687.7697039789716 346.13196103171873L677.1427710792503 346.13196103171873ZM820.922642990359 451.0307530478157Q801.3345067525793 451.0307530478157 791.529896041527 440.9309497562156Q781.7463705147997 430.83114646461553 781.7463705147997 412.84548423552394Q781.7463705147997 394.85982200643235 792.752836732368 385.2871483229533Q803.7593029499363 375.7355598237992 820.7539615157604 375.7355598237992L820.7539615157604 375.7355598237992Q855.2282378868796 375.7355598237992 853.8577009057648 410.33634730086754L853.8577009057648 410.33634730086754L811.0547767263322 410.33634730086754L811.0547767263322 416.26128409614864Q811.0547767263322 431.1474242294882 814.8501099048041 438.73809058643195Q818.645443083276 446.3287569433756 828.0494352921562 446.3287569433756L828.0494352921562 446.3287569433756Q845.6555642034006 446.3287569433756 851.1166269435352 427.49968734129027L851.1166269435352 427.49968734129027L853.8577009057648 427.96356139643683Q850.9690306532611 438.88568687670585 843.4627050336169 444.9582199622608Q835.9352942296476 451.0307530478157 820.922642990359 451.0307530478157L820.922642990359 451.0307530478157ZM811.2023730166061 399.87809587574515L811.2023730166061 407.3000807580901L826.8264946013152 407.3000807580901L826.8264946013152 399.87809587574515Q826.8264946013152 387.56434823003644 825.3927020672259 383.0942891531696Q823.9589095331365 378.62423007630275 819.6153615622187 378.62423007630275Q815.2928987756258 378.62423007630275 813.247635896116 383.38948173371745Q811.2023730166061 388.1758185754569 811.2023730166061 399.87809587574515L811.2023730166061 399.87809587574515ZM895.753962159229 413.83648789879163L895.753962159229 413.83648789879163L900.1607656831214 413.83648789879163L900.1607656831214 402.1552957828282Q900.1607656831214 387.7330297046352 898.5582916744332 382.7990965726218Q896.9769028500699 377.8651634406084 892.4225030359038 377.8651634406084L892.4225030359038 377.8651634406084Q889.681429073674 377.8651634406084 887.4885699038904 379.2989559746978Q885.2746255497817 380.7327485087871 885.2746255497817 383.2418854434435Q885.2746255497817 385.7510223780999 886.2023736600748 388.32341486573085L886.2023736600748 388.32341486573085L889.9977068385467 388.32341486573085Q891.1995623450629 391.52836288310704 891.1995623450629 395.9984219599739Q891.1995623450629 400.4684810368407 887.404229166591 403.73668460719153Q883.6088959881191 407.0048881775423 877.8526406674368 407.0048881775423L877.8526406674368 407.0048881775423Q864.7798263860337 407.0048881775423 864.7798263860337 394.3959479512858L864.7798263860337 394.3959479512858Q864.7798263860337 375.7355598237992 896.5130287949233 375.7355598237992L896.5130287949233 375.7355598237992Q914.5830317613144 375.7355598237992 921.498972219863 381.8713484623287Q928.393827494087 388.028222285183 928.393827494087 404.4324956899114L928.393827494087 404.4324956899114L928.393827494087 435.23794998850786Q928.393827494087 443.14489411032423 932.8006310179793 443.14489411032423L932.8006310179793 443.14489411032423Q937.966501177566 443.14489411032423 938.8731641035342 427.49968734129027L938.8731641035342 427.49968734129027L941.1503640106174 427.64728363156416Q940.538893665197 441.015290493515 936.1320901413046 446.012479178503Q931.7463718017372 451.0307530478157 921.7098240631116 451.0307530478157L921.7098240631116 451.0307530478157Q903.4922248064466 451.0307530478157 900.7722360285418 439.7923498026741L900.7722360285418 439.7923498026741Q898.7902287020065 445.56969030768124 894.8472992332607 448.2896790855861Q890.904369764515 451.0307530478157 883.3137034075713 451.0307530478157L883.3137034075713 451.0307530478157Q860.836896917288 451.0307530478157 860.836896917288 432.66555750087696L860.836896917288 432.66555750087696Q860.836896917288 421.89102831088184 869.4185669374993 417.86375810483673Q878.0002369577106 413.83648789879163 895.753962159229 413.83648789879163ZM889.681429073674 432.51796121060306Q889.681429073674 440.40382014809455 890.5248364466678 442.68102005517767Q891.3471586353368 444.9582199622608 893.7086992797192 444.9582199622608Q896.0702399241017 444.9582199622608 898.1155028036115 441.0785460464896Q900.1607656831214 437.2199573150432 900.1607656831214 430.38835759379384L900.1607656831214 430.38835759379384L900.1607656831214 416.26128409614864L899.1065064668792 416.26128409614864Q889.681429073674 416.26128409614864 889.681429073674 430.0720798289212L889.681429073674 430.0720798289212L889.681429073674 432.51796121060306ZM947.9819637318667 427.7948799218381L947.9819637318667 427.7948799218381L947.9819637318667 379.97368187309274L939.6322307392287 379.97368187309274L939.6322307392287 377.2536930951879L947.9819637318667 377.2536930951879L947.9819637318667 357.6655568574082L976.2150255428322 350.68636084588496L976.2150255428322 377.2536930951879L995.9507580708859 377.2536930951879L995.9507580708859 379.97368187309274L976.2150255428322 379.97368187309274L976.2150255428322 431.1474242294882Q976.2150255428322 438.2742165312854 977.6699032612465 441.62676083893547Q979.103695795336 444.9582199622608 983.6580956095021 444.9582199622608Q988.2124954236683 444.9582199622608 991.628295284293 440.40382014809455Q995.0440951449176 435.8494203339283 996.0983543611597 427.96356139643683L996.0983543611597 427.96356139643683L998.6918320331156 428.2587539769846Q997.4688913422747 438.73809058643195 992.0078286021402 444.8738792249614Q986.5467658620057 451.0307530478157 973.9378256357492 451.0307530478157Q961.3499705938176 451.0307530478157 954.6659671628421 446.012479178503Q947.9819637318667 441.015290493515 947.9819637318667 427.7948799218381ZM1000.2099653045044 338.39369838450114L1000.2099653045044 335.65262442227146L1036.792760108108 335.65262442227146L1036.792760108108 391.21208511823437Q1039.2175563054652 384.2328891067112 1044.2358301747777 379.97368187309274Q1049.2330188597657 375.7355598237992 1059.4171628886652 375.7355598237992L1059.4171628886652 375.7355598237992Q1082.9482285951908 375.7355598237992 1082.9482285951908 401.0799513822612L1082.9482285951908 401.0799513822612L1082.9482285951908 446.77154581419734L1091.4455578781026 446.77154581419734L1091.4455578781026 449.512619776427L1048.4739522240716 449.512619776427L1048.4739522240716 446.77154581419734L1054.715166784225 446.77154581419734L1054.715166784225 397.43221449406326Q1054.715166784225 388.32341486573085 1053.492226093384 385.6666816408005Q1052.2692854025431 383.0099484158702 1049.0854225694918 383.0099484158702L1049.0854225694918 383.0099484158702Q1044.2358301747777 383.0099484158702 1040.5037525492805 389.3987592662979Q1036.792760108108 395.7664849324006 1036.792760108108 404.87528456073306L1036.792760108108 404.87528456073306L1036.792760108108 446.77154581419734L1043.3291672488094 446.77154581419734L1043.3291672488094 449.512619776427L1000.2099653045044 449.512619776427L1000.2099653045044 446.77154581419734L1008.5596982971424 446.77154581419734L1008.5596982971424 338.39369838450114L1000.2099653045044 338.39369838450114ZM1133.6580968964395 451.0307530478157Q1114.06996065866 451.0307530478157 1104.2653499476078 440.9309497562156Q1094.48182442088 430.83114646461553 1094.48182442088 412.84548423552394Q1094.48182442088 394.85982200643235 1105.4882906384487 385.2871483229533Q1116.494756856017 375.7355598237992 1133.489415421841 375.7355598237992L1133.489415421841 375.7355598237992Q1167.9636917929602 375.7355598237992 1166.5931548118454 410.33634730086754L1166.5931548118454 410.33634730086754L1123.7902306324127 410.33634730086754L1123.7902306324127 416.26128409614864Q1123.7902306324127 431.1474242294882 1127.5855638108847 438.73809058643195Q1131.3808969893566 446.3287569433756 1140.7848891982367 446.3287569433756L1140.7848891982367 446.3287569433756Q1158.3910181094811 446.3287569433756 1163.8520808496157 427.49968734129027L1163.8520808496157 427.49968734129027L1166.5931548118454 427.96356139643683Q1163.7044845593418 438.88568687670585 1156.1981589396974 444.9582199622608Q1148.6707481357284 451.0307530478157 1133.6580968964395 451.0307530478157L1133.6580968964395 451.0307530478157ZM1123.9378269226868 399.87809587574515L1123.9378269226868 407.3000807580901L1139.5619485073958 407.3000807580901L1139.5619485073958 399.87809587574515Q1139.5619485073958 387.56434823003644 1138.1281559733065 383.0942891531696Q1136.694363439217 378.62423007630275 1132.3508154682995 378.62423007630275Q1128.0283526817066 378.62423007630275 1125.9830898021964 383.38948173371745Q1123.9378269226868 388.1758185754569 1123.9378269226868 399.87809587574515L1123.9378269226868 399.87809587574515ZM1222.7640858532286 381.4918151444815L1222.7640858532286 381.4918151444815Q1217.1554268228203 381.4918151444815 1212.8962195892018 388.78728892087736Q1208.6370123555835 396.08276269727327 1208.6370123555835 406.098225251574L1208.6370123555835 406.098225251574L1208.6370123555835 446.77154581419734L1219.4326267299034 446.77154581419734L1219.4326267299034 449.512619776427L1172.05421755198 449.512619776427L1172.05421755198 446.77154581419734L1180.403950544618 446.77154581419734L1180.403950544618 379.97368187309274L1172.05421755198 379.97368187309274L1172.05421755198 377.2536930951879L1208.6370123555835 377.2536930951879L1208.6370123555835 391.8235554636549Q1210.619019682119 384.08529281643723 1216.2276787125272 379.91042632011823Q1221.8574229272604 375.7355598237992 1228.9842152290576 375.7355598237992Q1236.1320927151796 375.7355598237992 1240.6021517920465 379.76283002984434Q1245.0722108689133 383.7690150515646 1245.0722108689133 391.14882956525986Q1245.0722108689133 398.5075588946303 1241.740751745588 402.45048836337605Q1238.409292622263 406.3934178321218 1231.493352163714 406.3934178321218Q1224.5774117051653 406.3934178321218 1221.3302933191394 401.8390180179556Q1218.0620897487886 397.28461820378936 1220.4868859461458 389.251162976024L1220.4868859461458 389.251162976024L1225.9479486862801 389.251162976024Q1229.7432818647521 381.4918151444815 1222.7640858532286 381.4918151444815ZM1327.8104741595998 446.62394952392344L1338.6060885339193 446.62394952392344L1327.515281579052 413.83648789879163L1297.4478087318248 413.83648789879163L1285.7666166158615 446.62394952392344L1297.152616151277 446.62394952392344L1297.152616151277 449.512619776427L1273.9167430252992 449.512619776427L1273.9167430252992 446.62394952392344L1281.0646205114213 446.62394952392344L1319.7770189318344 342.33662785324685L1332.2172776834923 342.33662785324685L1370.486887233083 446.62394952392344L1377.4660832446066 446.62394952392344L1377.4660832446066 449.512619776427L1327.8104741595998 449.512619776427L1327.8104741595998 446.62394952392344ZM1326.2923408882111 410.5050287754663L1313.0930155008587 370.7172859544864L1298.8183457129398 410.5050287754663L1326.2923408882111 410.5050287754663ZM1433.7846105762637 408.6706177392049Q1433.7846105762637 393.0464961544958 1432.266477304875 387.64868896733583Q1430.7483440334863 382.25088178017586 1426.3415405095939 382.25088178017586Q1421.9347369857014 382.25088178017586 1418.4556815721025 387.9438815478836Q1414.9555409741783 393.63688131559144 1414.9555409741783 403.2095549990704L1414.9555409741783 403.2095549990704L1414.9555409741783 430.9998279392143Q1414.9555409741783 437.515149895591 1417.5490186461338 442.0695497097572Q1420.121411133765 446.62394952392344 1425.1396850030778 446.62394952392344Q1430.1368736880659 446.62394952392344 1431.9712847243268 439.939946092948Q1433.7846105762637 433.2770278462974 1433.7846105762637 416.57756186102125L1433.7846105762637 416.57756186102125L1433.7846105762637 408.6706177392049ZM1378.6679387511226 377.2536930951879L1414.6603483936306 377.2536930951879L1414.6603483936306 389.251162976024Q1420.5852851889117 375.7355598237992 1435.5979364282002 375.7355598237992L1435.5979364282002 375.7355598237992Q1448.6707507096035 375.7355598237992 1455.8818837486997 385.13955203267943Q1463.0930167877964 394.56462942588456 1463.0930167877964 413.68889160851774Q1463.0930167877964 432.81315379115085 1455.2704134032792 441.9219534194833Q1447.4478100187625 451.0307530478157 1431.8026032497282 451.0307530478157L1431.8026032497282 451.0307530478157Q1424.5282146576574 451.0307530478157 1420.8804777694595 449.2174271958792Q1417.2327408812616 447.3830161596178 1414.9555409741783 443.587682981146L1414.9555409741783 443.587682981146L1414.9555409741783 482.91155174697934L1434.5436772119583 482.91155174697934L1434.5436772119583 485.65262570920896L1378.3727461705744 485.65262570920896L1378.3727461705744 482.91155174697934L1386.7224791632125 482.91155174697934L1386.7224791632125 379.97368187309274L1378.6679387511226 379.97368187309274L1378.6679387511226 377.2536930951879ZM1523.0592810076514 408.6706177392049Q1523.0592810076514 393.0464961544958 1521.5411477362627 387.64868896733583Q1520.023014464874 382.25088178017586 1515.6162109409815 382.25088178017586Q1511.2094074170896 382.25088178017586 1507.7092668191654 387.9438815478836Q1504.230211405566 393.63688131559144 1504.230211405566 403.2095549990704L1504.230211405566 403.2095549990704L1504.230211405566 430.9998279392143Q1504.230211405566 437.515149895591 1506.802603893197 442.0695497097572Q1509.396081565153 446.62394952392344 1514.3932702501406 446.62394952392344Q1519.4115441194535 446.62394952392344 1521.22486997139 439.939946092948Q1523.0592810076514 433.2770278462974 1523.0592810076514 416.57756186102125L1523.0592810076514 416.57756186102125L1523.0592810076514 408.6706177392049ZM1467.9426091825103 377.2536930951879L1503.9139336406934 377.2536930951879L1503.9139336406934 389.251162976024Q1509.8388704359745 375.7355598237992 1524.872606859588 375.7355598237992L1524.872606859588 375.7355598237992Q1537.9243359566663 375.7355598237992 1545.135468995763 385.13955203267943Q1552.3466020348592 394.56462942588456 1552.3466020348592 413.68889160851774Q1552.3466020348592 432.81315379115085 1544.5239986503425 441.9219534194833Q1536.7224804501502 451.0307530478157 1521.0772736811164 451.0307530478157L1521.0772736811164 451.0307530478157Q1513.7817999047202 451.0307530478157 1510.1551482008472 449.2174271958792Q1506.5074113126493 447.3830161596178 1504.230211405566 443.587682981146L1504.230211405566 443.587682981146L1504.230211405566 482.91155174697934L1523.818347643346 482.91155174697934L1523.818347643346 485.65262570920896L1467.6474166019625 485.65262570920896L1467.6474166019625 482.91155174697934L1475.9971495946006 482.91155174697934L1475.9971495946006 379.97368187309274L1467.9426091825103 379.97368187309274L1467.9426091825103 377.2536930951879Z " fill="#fad744" transform="matrix(0.5636627436265698,0,0,0.5636627436265699,0,68.53037895787637)"/></g></svg>